Topmarks-Book-FF-MASTER.ufo
<glyph name="parenleft" format="1">
  <advance width="640"/>
  <unicode hex="0028"/>
  <outline>
    <contour>
      <point x="410.505" y="-205" type="line"/>
      <point x="229.273" y="80.6533"/>
      <point x="136" y="374.371"/>
      <point x="136" y="671.347" type="curve" smooth="yes"/>
      <point x="136" y="965.924"/>
      <point x="227.773" y="1263.71"/>
      <point x="416.505" y="1560" type="curve"/>
      <point x="563.505" y="1560" type="line"/>
      <point x="387.548" y="1283.42"/>
      <point x="302.735" y="978.599"/>
      <point x="302.735" y="676.448" type="curve" smooth="yes"/>
      <point x="302.735" y="368.999"/>
      <point x="390.549" y="64.3213"/>
      <point x="559.505" y="-205" type="curve"/>
    </contour>
  </outline>
</glyph>
<glyph name="one" format="1">
  <advance width="775"/>
  <unicode hex="0031"/>
  <outline>
    <contour>
      <point x="474" y="0" type="line"/>
      <point x="302" y="0" type="line"/>
      <point x="302" y="1560" type="line"/>
      <point x="474" y="1560" type="line"/>
    </contour>
  </outline>
</glyph>
<glyph name="six" format="1">
  <advance width="1316"/>
  <unicode hex="0036"/>
  <outline>
    <contour>
      <point x="681" y="126" type="curve" smooth="yes"/>
      <point x="858" y="126"/>
      <point x="984" y="254"/>
      <point x="984" y="459" type="curve" smooth="yes"/>
      <point x="984" y="652"/>
      <point x="895" y="802"/>
      <point x="690" y="802" type="curve" smooth="yes"/>
      <point x="505" y="802"/>
      <point x="355" y="683"/>
      <point x="355" y="492" type="curve" smooth="yes"/>
      <point x="355" y="263"/>
      <point x="465" y="126"/>
    </contour>
    <contour>
      <point x="686" y="-24" type="curve" smooth="yes"/>
      <point x="312.858" y="-24"/>
      <point x="185.009" y="248.666"/>
      <point x="185.009" y="584.543" type="curve" smooth="yes"/>
      <point x="185.009" y="959.438"/>
      <point x="352.574" y="1450.53"/>
      <point x="915" y="1587" type="curve"/>
      <point x="951" y="1452" type="line"/>
      <point x="574" y="1352"/>
      <point x="408" y="1082"/>
      <point x="368" y="781" type="curve"/>
      <point x="433" y="903"/>
      <point x="604" y="946"/>
      <point x="710" y="946" type="curve" smooth="yes"/>
      <point x="974" y="946"/>
      <point x="1151" y="754"/>
      <point x="1151" y="464" type="curve" smooth="yes"/>
      <point x="1151" y="175"/>
      <point x="955" y="-24"/>
    </contour>
  </outline>
</glyph>
<glyph name="A" format="1">
  <advance width="1397"/>
  <unicode hex="0041"/>
  <outline>
    <contour>
      <point x="435.417" y="615" type="curve"/>
      <point x="956.417" y="615" type="line"/>
      <point x="869.39" y="870.64"/>
      <point x="781.563" y="1125.48"/>
      <point x="698.417" y="1385" type="curve"/>
      <point x="609.373" y="1129.71"/>
      <point x="522.552" y="872.198"/>
    </contour>
    <contour>
      <point x="40.4167" y="0" type="line"/>
      <point x="609.417" y="1560" type="line"/>
      <point x="787.417" y="1560" type="line"/>
      <point x="1357.42" y="0" type="line"/>
      <point x="1176.42" y="0" type="line"/>
      <point x="1008.42" y="479" type="line"/>
      <point x="383.417" y="479" type="line"/>
      <point x="216.417" y="0" type="line"/>
    </contour>
  </outline>
</glyph>
<glyph name="C" format="1">
  <advance width="1404"/>
  <unicode hex="0043"/>
  <outline>
    <contour>
      <point x="309" y="783" type="curve" smooth="yes"/>
      <point x="309" y="375"/>
      <point x="535" y="126"/>
      <point x="837" y="126" type="curve" smooth="yes"/>
      <point x="949" y="126"/>
      <point x="1088" y="161"/>
      <point x="1213" y="230" type="curve"/>
      <point x="1266" y="100" type="line"/>
      <point x="1120" y="18"/>
      <point x="988" y="-24"/>
      <point x="824" y="-24" type="curve" smooth="yes"/>
      <point x="446" y="-24"/>
      <point x="126" y="256"/>
      <point x="126" y="783" type="curve" smooth="yes"/>
      <point x="126" y="1310"/>
      <point x="446" y="1586"/>
      <point x="824" y="1586" type="curve" smooth="yes"/>
      <point x="988" y="1586"/>
      <point x="1120" y="1548"/>
      <point x="1266" y="1466" type="curve"/>
      <point x="1205" y="1332" type="line"/>
      <point x="1078" y="1402"/>
      <point x="957" y="1436"/>
      <point x="843" y="1436" type="curve" smooth="yes"/>
      <point x="544" y="1436"/>
      <point x="309" y="1198"/>
    </contour>
  </outline>
</glyph>
<glyph name="I" format="1">
  <advance width="994"/>
  <unicode hex="0049"/>
  <outline>
    <contour>
      <point x="792.083" y="0" type="line"/>
      <point x="202.083" y="0" type="line"/>
      <point x="202.083" y="124" type="line"/>
      <point x="410.083" y="124" type="line"/>
      <point x="410.083" y="1436" type="line"/>
      <point x="202.083" y="1436" type="line"/>
      <point x="202.083" y="1560" type="line"/>
      <point x="792.083" y="1560" type="line"/>
      <point x="792.083" y="1436" type="line"/>
      <point x="584.083" y="1436" type="line"/>
      <point x="584.083" y="124" type="line"/>
      <point x="792.083" y="124" type="line"/>
    </contour>
  </outline>
</glyph>
<glyph name="L" format="1">
  <advance width="1070"/>
  <unicode hex="004C"/>
  <outline>
    <contour>
      <point x="198" y="0" type="line"/>
      <point x="198" y="1560" type="line"/>
      <point x="372" y="1560" type="line"/>
      <point x="372" y="138" type="line"/>
      <point x="1051" y="138" type="line"/>
      <point x="1051" y="0" type="line"/>
    </contour>
  </outline>
</glyph>
<glyph name="N" format="1">
  <advance width="1583"/>
  <unicode hex="004E"/>
  <outline>
    <contour>
      <point x="198" y="0" type="line"/>
      <point x="198" y="1560" type="line"/>
      <point x="403" y="1560" type="line"/>
      <point x="673.066" y="1111.4"/>
      <point x="945.709" y="665.376"/>
      <point x="1214" y="215" type="curve"/>
      <point x="1214" y="1560" type="line"/>
      <point x="1385" y="1560" type="line"/>
      <point x="1385" y="0" type="line"/>
      <point x="1178" y="0" type="line"/>
      <point x="439" y="1217" type="line"/>
      <point x="370" y="1341" type="line"/>
      <point x="370" y="0" type="line"/>
    </contour>
  </outline>
</glyph>
<glyph name="O" format="1">
  <advance width="1646"/>
  <unicode hex="004F"/>
  <outline>
    <contour>
      <point x="823" y="126" type="curve" smooth="yes"/>
      <point x="536" y="126"/>
      <point x="310" y="353"/>
      <point x="310" y="782" type="curve" smooth="yes"/>
      <point x="310" y="1211"/>
      <point x="536" y="1436"/>
      <point x="823" y="1436" type="curve" smooth="yes"/>
      <point x="1110" y="1436"/>
      <point x="1336" y="1211"/>
      <point x="1336" y="782" type="curve" smooth="yes"/>
      <point x="1336" y="353"/>
      <point x="1110" y="126"/>
    </contour>
    <contour>
      <point x="823" y="-24" type="curve" smooth="yes"/>
      <point x="1278" y="-24"/>
      <point x="1520" y="340"/>
      <point x="1520" y="782" type="curve" smooth="yes"/>
      <point x="1520" y="1226"/>
      <point x="1278" y="1586"/>
      <point x="823" y="1586" type="curve" smooth="yes"/>
      <point x="368" y="1586"/>
      <point x="126" y="1226"/>
      <point x="126" y="782" type="curve" smooth="yes"/>
      <point x="126" y="340"/>
      <point x="368" y="-24"/>
    </contour>
  </outline>
</glyph>
<glyph name="P" format="1">
  <advance width="1242"/>
  <unicode hex="0050"/>
  <outline>
    <contour>
      <point x="372" y="840" type="line"/>
      <point x="640" y="840" type="line" smooth="yes"/>
      <point x="881" y="840"/>
      <point x="985" y="936"/>
      <point x="985" y="1122" type="curve" smooth="yes"/>
      <point x="985" y="1326"/>
      <point x="899" y="1422"/>
      <point x="620" y="1422" type="curve" smooth="yes"/>
      <point x="372" y="1422" type="line"/>
    </contour>
    <contour>
      <point x="198" y="0" type="line"/>
      <point x="198" y="1560" type="line"/>
      <point x="597" y="1560" type="line" smooth="yes"/>
      <point x="1012" y="1560"/>
      <point x="1169" y="1420"/>
      <point x="1169" y="1124" type="curve" smooth="yes"/>
      <point x="1169" y="838"/>
      <point x="991" y="691"/>
      <point x="621" y="691" type="curve" smooth="yes"/>
      <point x="372" y="691" type="line"/>
      <point x="372" y="0" type="line"/>
    </contour>
  </outline>
</glyph>
<glyph name="Q" format="1">
  <advance width="1646"/>
  <unicode hex="0051"/>
  <outline>
    <contour>
      <point x="1211" y="-287" type="line"/>
      <point x="1339" y="-218" type="line"/>
      <point x="988" y="457" type="line"/>
      <point x="850" y="382" type="line"/>
    </contour>
    <component base="O" xOffset="4"/>
  </outline>
</glyph>
<glyph name="T" format="1">
  <advance width="1124"/>
  <unicode hex="0054"/>
  <outline>
    <contour>
      <point x="477.575" y="0" type="line"/>
      <point x="477.575" y="1422" type="line"/>
      <point x="26.5753" y="1422" type="line"/>
      <point x="26.5753" y="1560" type="line"/>
      <point x="1097.58" y="1560" type="line"/>
      <point x="1097.58" y="1422" type="line"/>
      <point x="651.575" y="1422" type="line"/>
      <point x="651.575" y="0" type="line"/>
    </contour>
  </outline>
</glyph>
<glyph name="W" format="1">
  <advance width="2120"/>
  <unicode hex="0057"/>
  <outline>
    <contour>
      <point x="469.897" y="0" type="line"/>
      <point x="66.8966" y="1560" type="line"/>
      <point x="249.897" y="1560" type="line"/>
      <point x="542.897" y="349" type="line"/>
      <point x="580.897" y="178" type="line"/>
      <point x="715.049" y="637.847"/>
      <point x="847.467" y="1099.43"/>
      <point x="980.897" y="1560" type="curve"/>
      <point x="1153.9" y="1560" type="line"/>
      <point x="1284.69" y="1099.46"/>
      <point x="1417.87" y="641.31"/>
      <point x="1546.9" y="179" type="curve"/>
      <point x="1659.22" y="637.014"/>
      <point x="1766.62" y="1099.94"/>
      <point x="1876.9" y="1560" type="curve"/>
      <point x="2053.9" y="1560" type="line"/>
      <point x="1650.9" y="0" type="line"/>
      <point x="1438.9" y="0" type="line"/>
      <point x="1061.9" y="1354" type="line"/>
      <point x="680.897" y="0" type="line"/>
    </contour>
  </outline>
</glyph>
<glyph name="Y" format="1">
  <advance width="1269"/>
  <unicode hex="0059"/>
  <outline>
    <contour>
      <point x="546.526" y="0" type="line"/>
      <point x="546.526" y="652" type="line"/>
      <point x="25.5263" y="1560" type="line"/>
      <point x="217.526" y="1560" type="line"/>
      <point x="633.526" y="797" type="line"/>
      <point x="1053.53" y="1560" type="line"/>
      <point x="1243.53" y="1560" type="line"/>
      <point x="720.526" y="655" type="line"/>
      <point x="720.526" y="0" type="line"/>
    </contour>
  </outline>
</glyph>
<glyph name="a" format="1">
  <advance width="1168"/>
  <unicode hex="0061"/>
  <outline>
    <contour>
      <point x="522" y="110" type="curve" smooth="yes"/>
      <point x="707" y="110"/>
      <point x="811" y="260"/>
      <point x="811" y="453" type="curve" smooth="yes"/>
      <point x="811" y="894" type="line"/>
      <point x="771" y="907"/>
      <point x="734" y="920"/>
      <point x="662" y="920" type="curve" smooth="yes"/>
      <point x="440" y="920"/>
      <point x="273" y="737"/>
      <point x="273" y="439" type="curve" smooth="yes"/>
      <point x="273" y="239"/>
      <point x="369" y="110"/>
    </contour>
    <contour>
      <point x="498" y="-22" type="curve" smooth="yes"/>
      <point x="263" y="-22"/>
      <point x="97" y="162"/>
      <point x="97" y="438" type="curve" smooth="yes"/>
      <point x="97" y="804"/>
      <point x="339" y="1052"/>
      <point x="664" y="1052" type="curve" smooth="yes"/>
      <point x="791" y="1052"/>
      <point x="903" y="1017"/>
      <point x="981" y="976" type="curve"/>
      <point x="981" y="348" type="line" smooth="yes"/>
      <point x="981" y="170"/>
      <point x="999" y="121"/>
      <point x="1126" y="121" type="curve"/>
      <point x="1098" y="-14" type="line"/>
      <point x="935" y="-14"/>
      <point x="861" y="49"/>
      <point x="834" y="161" type="curve"/>
      <point x="768" y="48"/>
      <point x="647" y="-22"/>
    </contour>
  </outline>
</glyph>
<glyph name="b" format="1">
  <advance width="1173"/>
  <unicode hex="0062"/>
  <outline>
    <contour>
      <point x="573" y="115" type="curve" smooth="yes"/>
      <point x="825" y="150"/>
      <point x="903" y="318"/>
      <point x="903" y="550" type="curve" smooth="yes"/>
      <point x="903" y="793"/>
      <point x="795" y="920"/>
      <point x="653" y="920" type="curve" smooth="yes"/>
      <point x="500" y="920"/>
      <point x="338" y="791"/>
      <point x="338" y="601" type="curve" smooth="yes"/>
      <point x="338" y="133" type="line"/>
      <point x="338" y="133"/>
      <point x="477" y="102"/>
    </contour>
    <contour>
      <point x="569" y="-10" type="curve" smooth="yes"/>
      <point x="336" y="-10"/>
      <point x="168" y="53"/>
      <point x="168" y="53" type="curve"/>
      <point x="168" y="1560" type="line"/>
      <point x="338" y="1560" type="line"/>
      <point x="338" y="868" type="line"/>
      <point x="430" y="1002"/>
      <point x="541" y="1052"/>
      <point x="676" y="1052" type="curve" smooth="yes"/>
      <point x="899" y="1052"/>
      <point x="1077" y="865"/>
      <point x="1077" y="545" type="curve" smooth="yes"/>
      <point x="1077" y="215"/>
      <point x="873" y="-10"/>
    </contour>
  </outline>
</glyph>
<glyph name="c" format="1">
  <advance width="940"/>
  <unicode hex="0063"/>
  <outline>
    <contour>
      <point x="855" y="71" type="line"/>
      <point x="539" y="-135"/>
      <point x="84" y="-1"/>
      <point x="96" y="492" type="curve" smooth="yes"/>
      <point x="108" y="993"/>
      <point x="501" y="1153"/>
      <point x="844" y="992" type="curve"/>
      <point x="811" y="868" type="line"/>
      <point x="560" y="993"/>
      <point x="279" y="900"/>
      <point x="271" y="497" type="curve" smooth="yes"/>
      <point x="261" y="91"/>
      <point x="573" y="35"/>
      <point x="825" y="189" type="curve"/>
    </contour>
  </outline>
</glyph>
<glyph name="d" format="1">
  <advance width="1168"/>
  <unicode hex="0064"/>
  <outline>
    <contour>
      <point x="824" y="158" type="curve"/>
      <point x="765" y="54"/>
      <point x="665" y="-25"/>
      <point x="500" y="-22" type="curve" smooth="yes"/>
      <point x="277" y="-18"/>
      <point x="96" y="143"/>
      <point x="96" y="438" type="curve" smooth="yes"/>
      <point x="96" y="813"/>
      <point x="332" y="1052"/>
      <point x="650" y="1052" type="curve" smooth="yes"/>
      <point x="723" y="1052"/>
      <point x="783" y="1039"/>
      <point x="795" y="1036" type="curve"/>
      <point x="795" y="1560" type="line"/>
      <point x="966" y="1560" type="line"/>
      <point x="966" y="348" type="line" smooth="yes"/>
      <point x="966" y="170"/>
      <point x="984" y="121"/>
      <point x="1111" y="121" type="curve"/>
      <point x="1083" y="-14" type="line"/>
      <point x="925" y="-14"/>
      <point x="852" y="42"/>
    </contour>
    <contour>
      <point x="272" y="443" type="curve" smooth="yes"/>
      <point x="272" y="213"/>
      <point x="387" y="114"/>
      <point x="520" y="110" type="curve" smooth="yes"/>
      <point x="693" y="105"/>
      <point x="772" y="244"/>
      <point x="796" y="302" type="curve"/>
      <point x="796" y="894" type="line"/>
      <point x="758" y="908"/>
      <point x="712" y="920"/>
      <point x="648" y="920" type="curve" smooth="yes"/>
      <point x="411" y="920"/>
      <point x="272" y="718"/>
    </contour>
  </outline>
</glyph>
<glyph name="e" format="1">
  <advance width="1047"/>
  <unicode hex="0065"/>
  <outline>
    <contour>
      <point x="274" y="519" type="curve"/>
      <point x="580" y="519"/>
      <point x="794" y="596"/>
      <point x="794" y="757" type="curve" smooth="yes"/>
      <point x="794" y="851"/>
      <point x="717" y="923"/>
      <point x="598" y="920" type="curve" smooth="yes"/>
      <point x="432" y="916"/>
      <point x="275" y="761"/>
    </contour>
    <contour>
      <point x="595" y="-22" type="curve" smooth="yes"/>
      <point x="322" y="-22"/>
      <point x="101" y="168"/>
      <point x="101" y="505" type="curve" smooth="yes"/>
      <point x="101" y="803"/>
      <point x="290" y="1052"/>
      <point x="607" y="1052" type="curve" smooth="yes"/>
      <point x="814" y="1052"/>
      <point x="951" y="922"/>
      <point x="951" y="755" type="curve" smooth="yes"/>
      <point x="951" y="510"/>
      <point x="702" y="398"/>
      <point x="279" y="398" type="curve"/>
      <point x="307" y="182"/>
      <point x="490" y="110"/>
      <point x="610" y="110" type="curve" smooth="yes"/>
      <point x="761" y="110"/>
      <point x="875" y="178"/>
      <point x="935" y="223" type="curve"/>
      <point x="993" y="100" type="line"/>
      <point x="874" y="17"/>
      <point x="751" y="-22"/>
    </contour>
  </outline>
</glyph>
<glyph name="f" format="1">
  <advance width="681"/>
  <unicode hex="0066"/>
  <outline>
    <contour>
      <point x="31.0" y="920.0" type="line"/>
      <point x="31.0" y="1026.0" type="line"/>
      <point x="663.0" y="1026.0" type="line"/>
      <point x="663.0" y="920.0" type="line"/>
    </contour>
    <contour>
      <point x="404" y="0" type="line"/>
      <point x="234" y="0" type="line"/>
      <point x="234" y="1147" type="line" smooth="yes"/>
      <point x="234" y="1379"/>
      <point x="314" y="1560"/>
      <point x="689" y="1560" type="curve" smooth="yes"/>
      <point x="711" y="1560" type="line"/>
      <point x="728" y="1424" type="line"/>
      <point x="706" y="1424" type="line" smooth="yes"/>
      <point x="452" y="1424"/>
      <point x="404" y="1335"/>
      <point x="404" y="1159" type="curve" smooth="yes"/>
    </contour>
  </outline>
</glyph>
<glyph name="g" format="1">
  <advance width="1125"/>
  <unicode hex="0067"/>
  <outline>
    <contour>
      <point x="272" y="439" type="curve" smooth="yes"/>
      <point x="272" y="737"/>
      <point x="439" y="920"/>
      <point x="661" y="920" type="curve" smooth="yes"/>
      <point x="733" y="920"/>
      <point x="770" y="907"/>
      <point x="810" y="894" type="curve"/>
      <point x="810" y="453" type="line" smooth="yes"/>
      <point x="810" y="260"/>
      <point x="706" y="110"/>
      <point x="521" y="110" type="curve" smooth="yes"/>
      <point x="368" y="110"/>
      <point x="272" y="239"/>
    </contour>
    <contour>
      <point x="470" y="-562" type="curve" smooth="yes"/>
      <point x="817" y="-562"/>
      <point x="980" y="-309"/>
      <point x="980" y="9" type="curve"/>
      <point x="980" y="976" type="line"/>
      <point x="902" y="1017"/>
      <point x="790" y="1052"/>
      <point x="663" y="1052" type="curve" smooth="yes"/>
      <point x="338" y="1052"/>
      <point x="96" y="804"/>
      <point x="96" y="438" type="curve" smooth="yes"/>
      <point x="96" y="162"/>
      <point x="262" y="-22"/>
      <point x="497" y="-22" type="curve" smooth="yes"/>
      <point x="630" y="-22"/>
      <point x="741" y="34"/>
      <point x="810" y="126" type="curve"/>
      <point x="810" y="-12" type="line"/>
      <point x="810" y="-272"/>
      <point x="695" y="-420"/>
      <point x="462" y="-420" type="curve" smooth="yes"/>
      <point x="383" y="-420"/>
      <point x="293" y="-407"/>
      <point x="188" y="-370" type="curve"/>
      <point x="170" y="-513" type="line"/>
      <point x="283" y="-549"/>
      <point x="382" y="-562"/>
    </contour>
  </outline>
</glyph>
<glyph name="h" format="1">
  <advance width="1239"/>
  <unicode hex="0068"/>
  <outline>
    <contour>
      <point x="1199" y="121" type="line"/>
      <point x="1172" y="-14" type="line"/>
      <point x="1155" y="-14" type="line" smooth="yes"/>
      <point x="933" y="-14"/>
      <point x="873" y="112"/>
      <point x="873" y="338" type="curve" smooth="yes"/>
      <point x="873" y="607" type="line" smooth="yes"/>
      <point x="873" y="853"/>
      <point x="802" y="920"/>
      <point x="657" y="920" type="curve" smooth="yes"/>
      <point x="495" y="920"/>
      <point x="350" y="753"/>
      <point x="350" y="532" type="curve" smooth="yes"/>
      <point x="350" y="0" type="line"/>
      <point x="180" y="0" type="line"/>
      <point x="180" y="1560" type="line"/>
      <point x="350" y="1560" type="line"/>
      <point x="350" y="876.484" type="line"/>
      <point x="431.852" y="986.923"/>
      <point x="545.61" y="1052"/>
      <point x="709" y="1052" type="curve" smooth="yes"/>
      <point x="895" y="1052"/>
      <point x="1043" y="946"/>
      <point x="1043" y="625" type="curve" smooth="yes"/>
      <point x="1043" y="311" type="line" smooth="yes"/>
      <point x="1043" y="181"/>
      <point x="1066" y="121"/>
      <point x="1171" y="121" type="curve" smooth="yes"/>
    </contour>
  </outline>
</glyph>
<glyph name="i" format="1">
  <advance width="609"/>
  <unicode hex="0069"/>
  <outline>
    <contour>
      <point x="548" y="-10" type="line"/>
      <point x="202" y="-40"/>
      <point x="188" y="128"/>
      <point x="188" y="326" type="curve" smooth="yes"/>
      <point x="188" y="1026" type="line"/>
      <point x="358" y="1026" type="line"/>
      <point x="358" y="320" type="line" smooth="yes"/>
      <point x="358" y="185"/>
      <point x="346" y="112"/>
      <point x="576" y="124" type="curve"/>
    </contour>
    <contour>
      <point x="281" y="1236" type="line" smooth="yes"/>
      <point x="221" y="1236"/>
      <point x="161" y="1274"/>
      <point x="161" y="1347" type="curve" smooth="yes"/>
      <point x="161" y="1421"/>
      <point x="221" y="1458"/>
      <point x="281" y="1458" type="curve" smooth="yes"/>
      <point x="282" y="1458" type="line" smooth="yes"/>
      <point x="340" y="1458"/>
      <point x="399" y="1420"/>
      <point x="399" y="1346" type="curve" smooth="yes"/>
      <point x="399" y="1273"/>
      <point x="341" y="1236"/>
      <point x="282" y="1236" type="curve" smooth="yes"/>
    </contour>
  </outline>
</glyph>
<glyph name="k" format="1">
  <advance width="1014"/>
  <unicode hex="006B"/>
  <outline>
    <contour>
      <point x="336" y="0" type="line"/>
      <point x="166" y="0" type="line"/>
      <point x="166" y="1560" type="line"/>
      <point x="336" y="1560" type="line"/>
      <point x="336" y="556.47" type="line"/>
      <point x="777" y="1026" type="line"/>
      <point x="984" y="1026" type="line"/>
      <point x="492" y="513" type="line"/>
      <point x="1046" y="0" type="line"/>
      <point x="829" y="0" type="line"/>
      <point x="336" y="459.845" type="line"/>
    </contour>
  </outline>
</glyph>
<glyph name="l" format="1">
  <advance width="661"/>
  <unicode hex="006C"/>
  <outline>
    <contour>
      <point x="604" y="-14" type="line"/>
      <point x="572.462" y="-17.0918"/>
      <point x="543.452" y="-18.5762"/>
      <point x="516.771" y="-18.5762" type="curve" smooth="yes"/>
      <point x="241.427" y="-18.5762"/>
      <point x="214" y="139.492"/>
      <point x="214" y="320" type="curve" smooth="yes"/>
      <point x="214" y="1560" type="line"/>
      <point x="384" y="1560" type="line"/>
      <point x="384" y="314" type="line" smooth="yes"/>
      <point x="384" y="194.849"/>
      <point x="387.348" y="114.646"/>
      <point x="541.489" y="114.646" type="curve" smooth="yes"/>
      <point x="561.992" y="114.646"/>
      <point x="585.056" y="116.065"/>
      <point x="611" y="119" type="curve"/>
    </contour>
  </outline>
</glyph>
<glyph name="m" format="1">
  <advance width="1868.0"/>
  <unicode hex="006D"/>
  <outline>
    <contour>
      <point x="351.0" y="0.0" type="line"/>
      <point x="181.0" y="0.0" type="line" smooth="yes"/>
      <point x="181.0" y="634.0" type="line" smooth="yes"/>
      <point x="181.0" y="833.0"/>
      <point x="138.0" y="1026.0"/>
      <point x="138.0" y="1026.0" type="curve"/>
      <point x="309.0" y="1026.0" type="line"/>
      <point x="309.0" y="1026.0"/>
      <point x="351.0" y="886"/>
      <point x="351.0" y="667.0" type="curve" smooth="yes"/>
    </contour>
    <contour>
      <point x="1813.0" y="121" type="curve"/>
      <point x="1787.0" y="-14" type="line"/>
      <point x="1563.0" y="-12"/>
      <point x="1483.0" y="87"/>
      <point x="1483.0" y="313" type="curve" smooth="yes"/>
      <point x="1483.0" y="600" type="line" smooth="yes"/>
      <point x="1483.0" y="846"/>
      <point x="1431.0" y="917"/>
      <point x="1291.0" y="920" type="curve" smooth="yes"/>
      <point x="1148.0" y="923"/>
      <point x="1011.0" y="792"/>
      <point x="1011.0" y="542" type="curve" smooth="yes"/>
      <point x="1011.0" y="0" type="line"/>
      <point x="840.0" y="2" type="line"/>
      <point x="840.0" y="607" type="line" smooth="yes"/>
      <point x="840.0" y="840"/>
      <point x="782.0" y="920"/>
      <point x="657.0" y="920" type="curve" smooth="yes"/>
      <point x="528.0" y="920"/>
      <point x="351.0" y="796"/>
      <point x="351.0" y="555" type="curve"/>
      <point x="259.0" y="689" type="line"/>
      <point x="352.0" y="954"/>
      <point x="505.0" y="1052"/>
      <point x="684.0" y="1052" type="curve" smooth="yes"/>
      <point x="806.06" y="1052"/>
      <point x="912.311" y="1002.71"/>
      <point x="967.56" y="869.573" type="curve"/>
      <point x="1044.53" y="988.034"/>
      <point x="1155.33" y="1052"/>
      <point x="1320.0" y="1052" type="curve" smooth="yes"/>
      <point x="1501.0" y="1052"/>
      <point x="1653.0" y="946"/>
      <point x="1653.0" y="625" type="curve" smooth="yes"/>
      <point x="1653.0" y="308" type="line" smooth="yes"/>
      <point x="1653.0" y="178"/>
      <point x="1710.0" y="122"/>
    </contour>
  </outline>
</glyph>
<glyph name="n" format="1">
  <advance width="1249.0"/>
  <unicode hex="006E"/>
  <outline>
    <contour>
      <point x="351" y="0" type="line"/>
      <point x="181" y="0" type="line" smooth="yes"/>
      <point x="181" y="634" type="line" smooth="yes"/>
      <point x="181" y="833"/>
      <point x="138" y="1026"/>
      <point x="138" y="1026" type="curve"/>
      <point x="309" y="1026" type="line"/>
      <point x="309" y="1026"/>
      <point x="351" y="906"/>
      <point x="351" y="667" type="curve" smooth="yes"/>
    </contour>
    <contour>
      <point x="1196.0" y="121.0" type="line"/>
      <point x="1169.0" y="-14.0" type="line"/>
      <point x="1152.0" y="-14.0" type="line" smooth="yes"/>
      <point x="930.0" y="-14.0"/>
      <point x="870.0" y="112.0"/>
      <point x="870.0" y="338.0" type="curve" smooth="yes"/>
      <point x="870.0" y="607.0" type="line" smooth="yes"/>
      <point x="870.0" y="845.0"/>
      <point x="804.0" y="920.0"/>
      <point x="672.0" y="920.0" type="curve" smooth="yes"/>
      <point x="511.0" y="920.0"/>
      <point x="351" y="773"/>
      <point x="351" y="552" type="curve"/>
      <point x="263" y="750" type="line"/>
      <point x="341" y="926"/>
      <point x="483" y="1052"/>
      <point x="698.0" y="1052.0" type="curve" smooth="yes"/>
      <point x="884" y="1052"/>
      <point x="1040.0" y="946.0"/>
      <point x="1040.0" y="625.0" type="curve" smooth="yes"/>
      <point x="1040.0" y="311.0" type="line" smooth="yes"/>
      <point x="1040.0" y="181.0"/>
      <point x="1063.0" y="121.0"/>
      <point x="1168.0" y="121.0" type="curve" smooth="yes"/>
    </contour>
  </outline>
</glyph>
<glyph name="o" format="1">
  <advance width="1184"/>
  <unicode hex="006F"/>
  <outline>
    <contour>
      <point x="596" y="-22" type="curve" smooth="yes"/>
      <point x="303" y="-22"/>
      <point x="96" y="193"/>
      <point x="96" y="513" type="curve" smooth="yes"/>
      <point x="96" y="835"/>
      <point x="304" y="1052"/>
      <point x="596" y="1052" type="curve" smooth="yes"/>
      <point x="884" y="1052"/>
      <point x="1088" y="834"/>
      <point x="1088" y="513" type="curve" smooth="yes"/>
      <point x="1088" y="192"/>
      <point x="884" y="-22"/>
    </contour>
    <contour>
      <point x="596" y="110" type="curve" smooth="yes"/>
      <point x="790" y="110"/>
      <point x="914" y="275"/>
      <point x="914" y="513" type="curve" smooth="yes"/>
      <point x="914" y="754"/>
      <point x="791" y="920"/>
      <point x="596" y="920" type="curve" smooth="yes"/>
      <point x="398" y="920"/>
      <point x="270" y="755"/>
      <point x="270" y="513" type="curve" smooth="yes"/>
      <point x="270" y="276"/>
      <point x="397" y="110"/>
    </contour>
  </outline>
</glyph>
<glyph name="p" format="1">
  <advance width="1182.0"/>
  <unicode hex="0070"/>
  <outline>
    <contour>
      <point x="349.0" y="-574.0" type="line"/>
      <point x="179.0" y="-574.0" type="line" smooth="yes"/>
      <point x="179.0" y="634.0" type="line" smooth="yes"/>
      <point x="179.0" y="833.0"/>
      <point x="136.0" y="1026.0"/>
      <point x="136.0" y="1026.0" type="curve"/>
      <point x="307.0" y="1026.0" type="line"/>
      <point x="307.0" y="1026.0"/>
      <point x="349.0" y="906.0"/>
      <point x="349.0" y="667.0" type="curve" smooth="yes"/>
    </contour>
    <contour>
      <point x="267.0" y="680.0" type="line"/>
      <point x="300.0" y="881"/>
      <point x="392.0" y="1052.0"/>
      <point x="672.0" y="1052.0" type="curve" smooth="yes"/>
      <point x="929.0" y="1052.0"/>
      <point x="1086.0" y="853.0"/>
      <point x="1086.0" y="543.0" type="curve" smooth="yes"/>
      <point x="1086.0" y="186.0"/>
      <point x="884.0" y="-22.0"/>
      <point x="594.0" y="-22.0" type="curve" smooth="yes"/>
      <point x="456.0" y="-22.0"/>
      <point x="336.0" y="24.0"/>
      <point x="268.0" y="55.0" type="curve"/>
      <point x="268.0" y="197.0" type="line"/>
      <point x="344.0" y="163.0"/>
      <point x="446.0" y="110.0"/>
      <point x="568.0" y="110.0" type="curve" smooth="yes"/>
      <point x="761.0" y="110.0"/>
      <point x="912.0" y="239.0"/>
      <point x="912.0" y="541.0" type="curve" smooth="yes"/>
      <point x="912.0" y="785.0"/>
      <point x="815.0" y="920"/>
      <point x="637.0" y="920.0" type="curve" smooth="yes"/>
      <point x="434.0" y="920"/>
      <point x="349.0" y="721"/>
      <point x="349.0" y="500" type="curve"/>
    </contour>
  </outline>
</glyph>
<glyph name="r" format="1">
  <advance width="809"/>
  <unicode hex="0072"/>
  <outline>
    <contour>
      <point x="220" y="0" type="line"/>
      <point x="220" y="650" type="line" smooth="yes"/>
      <point x="220" y="778"/>
      <point x="171" y="846"/>
      <point x="78" y="891" type="curve"/>
      <point x="159" y="1026" type="line"/>
      <point x="203" y="1011"/>
      <point x="328" y="940"/>
      <point x="348" y="829" type="curve"/>
      <point x="382.914" y="936.178"/>
      <point x="473.207" y="1047.31"/>
      <point x="646.715" y="1047.31" type="curve" smooth="yes"/>
      <point x="686.897" y="1047.31"/>
      <point x="731.544" y="1041.35"/>
      <point x="781" y="1028" type="curve"/>
      <point x="767" y="883" type="line"/>
      <point x="723.288" y="897.62"/>
      <point x="684.135" y="904.345"/>
      <point x="649.146" y="904.345" type="curve" smooth="yes"/>
      <point x="447.202" y="904.345"/>
      <point x="390" y="680.31"/>
      <point x="390" y="457" type="curve" smooth="yes"/>
      <point x="390" y="0" type="line"/>
    </contour>
  </outline>
</glyph>
<glyph name="s" format="1">
  <advance width="890"/>
  <unicode hex="0073"/>
  <outline>
    <contour>
      <point x="795" y="290" type="curve" smooth="yes"/>
      <point x="795" y="85"/>
      <point x="654" y="-22"/>
      <point x="461" y="-22" type="curve" smooth="yes"/>
      <point x="296" y="-22"/>
      <point x="174" y="35"/>
      <point x="115" y="72" type="curve"/>
      <point x="164" y="202" type="line"/>
      <point x="238" y="152"/>
      <point x="344" y="110"/>
      <point x="450" y="110" type="curve" smooth="yes"/>
      <point x="546" y="110"/>
      <point x="624" y="156"/>
      <point x="632" y="267" type="curve" smooth="yes"/>
      <point x="639" y="360"/>
      <point x="592" y="392"/>
      <point x="438" y="465" type="curve" smooth="yes"/>
      <point x="298" y="532"/>
      <point x="126" y="575"/>
      <point x="123" y="771" type="curve" smooth="yes"/>
      <point x="120" y="966"/>
      <point x="279" y="1052"/>
      <point x="465" y="1052" type="curve" smooth="yes"/>
      <point x="597" y="1052"/>
      <point x="698" y="1021"/>
      <point x="766" y="984" type="curve"/>
      <point x="731" y="857" type="line"/>
      <point x="681" y="884"/>
      <point x="588" y="922"/>
      <point x="470" y="920" type="curve" smooth="yes"/>
      <point x="370" y="918"/>
      <point x="291" y="872"/>
      <point x="291" y="784" type="curve" smooth="yes"/>
      <point x="291" y="695"/>
      <point x="367" y="670"/>
      <point x="512" y="601" type="curve" smooth="yes"/>
      <point x="671" y="525"/>
      <point x="795" y="468"/>
    </contour>
  </outline>
</glyph>
<glyph name="t" format="1">
  <advance width="770"/>
  <unicode hex="0074"/>
  <outline>
    <contour>
      <point x="677" y="-10" type="line"/>
      <point x="291" y="-40"/>
      <point x="247" y="128"/>
      <point x="247" y="326" type="curve" smooth="yes"/>
      <point x="247" y="1353" type="line"/>
      <point x="417" y="1353" type="line"/>
      <point x="417" y="320" type="line" smooth="yes"/>
      <point x="417" y="185"/>
      <point x="437" y="112"/>
      <point x="691" y="124" type="curve"/>
    </contour>
    <contour>
      <point x="48" y="920" type="line"/>
      <point x="48" y="1026" type="line"/>
      <point x="704" y="1026" type="line"/>
      <point x="704" y="920" type="line"/>
    </contour>
  </outline>
</glyph>
<glyph name="u" format="1">
  <advance width="1194"/>
  <unicode hex="0075"/>
  <outline>
    <contour>
      <point x="511" y="-22" type="curve" smooth="yes"/>
      <point x="330" y="-22"/>
      <point x="154" y="78"/>
      <point x="154" y="347" type="curve" smooth="yes"/>
      <point x="154" y="398"/>
      <point x="161" y="553"/>
      <point x="161" y="634" type="curve" smooth="yes"/>
      <point x="161" y="833"/>
      <point x="132" y="1026"/>
      <point x="132" y="1026" type="curve"/>
      <point x="300" y="1026" type="line"/>
      <point x="300" y="1026"/>
      <point x="332" y="906"/>
      <point x="332" y="667" type="curve" smooth="yes"/>
      <point x="332" y="550"/>
      <point x="325" y="426"/>
      <point x="325" y="352" type="curve" smooth="yes"/>
      <point x="325" y="165"/>
      <point x="423" y="110"/>
      <point x="536" y="110" type="curve" smooth="yes"/>
      <point x="701" y="110"/>
      <point x="832" y="259"/>
      <point x="832" y="482" type="curve" smooth="yes"/>
      <point x="832" y="1026" type="line"/>
      <point x="1002" y="1026" type="line"/>
      <point x="1002" y="328" type="line" smooth="yes"/>
      <point x="1002" y="182"/>
      <point x="1021" y="121"/>
      <point x="1147" y="121" type="curve"/>
      <point x="1118" y="-14" type="line"/>
      <point x="981" y="-14"/>
      <point x="887" y="32"/>
      <point x="857" y="167" type="curve"/>
      <point x="781" y="41"/>
      <point x="676" y="-22"/>
    </contour>
  </outline>
</glyph>
<glyph name="v" format="1">
  <advance width="1060"/>
  <unicode hex="0076"/>
  <outline>
    <contour>
      <point x="448" y="0" type="line"/>
      <point x="46" y="1026" type="line"/>
      <point x="228" y="1026" type="line"/>
      <point x="481" y="353" type="line"/>
      <point x="538" y="167" type="line"/>
      <point x="595" y="353" type="line"/>
      <point x="837" y="1026" type="line"/>
      <point x="1014" y="1026" type="line"/>
      <point x="616" y="0" type="line"/>
    </contour>
  </outline>
</glyph>
<glyph name="w" format="1">
  <advance width="1625"/>
  <unicode hex="0077"/>
  <outline>
    <contour>
      <point x="533" y="0" type="line"/>
      <point x="825" y="831" type="line"/>
      <point x="1091" y="0" type="line"/>
      <point x="1251" y="0" type="line"/>
      <point x="1601" y="1026" type="line"/>
      <point x="1432" y="1026" type="line"/>
      <point x="1210" y="287" type="line"/>
      <point x="1176" y="189" type="line"/>
      <point x="1147" y="286" type="line" smooth="yes"/>
      <point x="910" y="1026" type="line"/>
      <point x="751" y="1026" type="line"/>
      <point x="491" y="276" type="line"/>
      <point x="460" y="186" type="line"/>
      <point x="431" y="284" type="line" smooth="yes"/>
      <point x="200" y="1026" type="line"/>
      <point x="24" y="1026" type="line"/>
      <point x="371" y="0" type="line"/>
    </contour>
  </outline>
</glyph>
<glyph name="x" format="1">
  <advance width="995"/>
  <unicode hex="0078"/>
  <outline>
    <contour>
      <point x="14" y="0" type="line"/>
      <point x="406" y="514" type="line"/>
      <point x="33" y="1026" type="line"/>
      <point x="235" y="1026" type="line"/>
      <point x="512" y="638" type="line"/>
      <point x="789" y="1026" type="line"/>
      <point x="968" y="1026" type="line"/>
      <point x="598" y="518" type="line"/>
      <point x="981" y="0" type="line"/>
      <point x="780" y="0" type="line"/>
      <point x="501" y="396" type="line"/>
      <point x="204" y="0" type="line"/>
    </contour>
  </outline>
</glyph>
<glyph name="y" format="1">
  <advance width="1197"/>
  <unicode hex="0079"/>
  <outline>
    <contour>
      <point x="871" y="114.454" type="line"/>
      <point x="799.961" y="33.0391"/>
      <point x="705.575" y="-22"/>
      <point x="564" y="-22" type="curve" smooth="yes"/>
      <point x="381.58" y="-22"/>
      <point x="175.77" y="76.1113"/>
      <point x="175.77" y="348.747" type="curve" smooth="yes"/>
      <point x="175.77" y="354.097"/>
      <point x="175.846" y="359.515"/>
      <point x="176" y="365" type="curve" smooth="yes"/>
      <point x="182" y="582" type="line" smooth="yes"/>
      <point x="182.976" y="616.591"/>
      <point x="183.411" y="648.899"/>
      <point x="183.411" y="679.016" type="curve" smooth="yes"/>
      <point x="183.411" y="926.639"/>
      <point x="154" y="1026"/>
      <point x="154" y="1026" type="curve"/>
      <point x="325" y="1026" type="line"/>
      <point x="325" y="1026"/>
      <point x="354.411" y="958.435"/>
      <point x="354.411" y="698.572" type="curve" smooth="yes"/>
      <point x="354.411" y="666.968"/>
      <point x="353.976" y="632.519"/>
      <point x="353" y="595" type="curve" smooth="yes"/>
      <point x="347" y="365" type="line" smooth="yes"/>
      <point x="346.905" y="361.239"/>
      <point x="346.858" y="357.531"/>
      <point x="346.858" y="353.874" type="curve" smooth="yes"/>
      <point x="346.858" y="165.006"/>
      <point x="474.203" y="110"/>
      <point x="588" y="110" type="curve" smooth="yes"/>
      <point x="746" y="110"/>
      <point x="871" y="230"/>
      <point x="871" y="427" type="curve" smooth="yes"/>
      <point x="871" y="1026" type="line"/>
      <point x="1041" y="1026" type="line"/>
      <point x="1041" y="9" type="line" smooth="yes"/>
      <point x="1041" y="-309.231"/>
      <point x="879.425" y="-565.759"/>
      <point x="531.922" y="-565.759" type="curve" smooth="yes"/>
      <point x="443.725" y="-565.759"/>
      <point x="343.55" y="-549.234"/>
      <point x="231" y="-513" type="curve"/>
      <point x="249" y="-370" type="line"/>
      <point x="353.51" y="-406.781"/>
      <point x="445.408" y="-424.323"/>
      <point x="524.368" y="-424.323" type="curve" smooth="yes"/>
      <point x="756.685" y="-424.323"/>
      <point x="871" y="-272.471"/>
      <point x="871" y="-12" type="curve" smooth="yes"/>
    </contour>
  </outline>
</glyph>
<glyph name="z" format="1">
  <advance width="974"/>
  <unicode hex="007A"/>
  <outline>
    <contour>
      <point x="127" y="0" type="line"/>
      <point x="127" y="89" type="line"/>
      <point x="651" y="891" type="line"/>
      <point x="153" y="891" type="line"/>
      <point x="153" y="1026" type="line"/>
      <point x="874" y="1026" type="line"/>
      <point x="874" y="939" type="line"/>
      <point x="352" y="134" type="line"/>
      <point x="891" y="134" type="line"/>
      <point x="891" y="0" type="line"/>
    </contour>
  </outline>
</glyph>
<glyph name="acute" format="1">
  <advance width="618"/>
  <unicode hex="00B4"/>
  <outline>
    <contour>
      <point x="93" y="1136" type="line"/>
      <point x="319" y="1456" type="line"/>
      <point x="531" y="1456" type="line"/>
      <point x="223" y="1136" type="line"/>
    </contour>
  </outline>
</glyph>
<glyph name="onehalf" format="1">
  <advance width="1949"/>
  <unicode hex="00BD"/>
  <outline>
    <contour>
      <point x="1507" y="1052" type="curve" smooth="yes"/>
      <point x="1687" y="1052"/>
      <point x="1810" y="930"/>
      <point x="1815" y="747" type="curve" smooth="yes"/>
      <point x="1815.08" y="744.066"/>
      <point x="1815.12" y="741.147"/>
      <point x="1815.12" y="738.245" type="curve" smooth="yes"/>
      <point x="1815.12" y="592.76"/>
      <point x="1717.57" y="486.163"/>
      <point x="1596" y="344" type="curve" smooth="yes"/>
      <point x="1404" y="119" type="line"/>
      <point x="1795" y="119" type="line"/>
      <point x="1795" y="0" type="line"/>
      <point x="1236" y="0" type="line"/>
      <point x="1236" y="126" type="line"/>
      <point x="1514" y="451" type="line" smooth="yes"/>
      <point x="1615.97" y="571.072"/>
      <point x="1664.35" y="644.83"/>
      <point x="1664.35" y="738.045" type="curve" smooth="yes"/>
      <point x="1664.35" y="742.646"/>
      <point x="1664.24" y="747.296"/>
      <point x="1664" y="752" type="curve" smooth="yes"/>
      <point x="1659" y="861"/>
      <point x="1608" y="926"/>
      <point x="1503" y="926" type="curve" smooth="yes"/>
      <point x="1364" y="926"/>
      <point x="1275" y="832"/>
      <point x="1275" y="833" type="curve" smooth="yes"/>
      <point x="1217" y="950" type="line"/>
      <point x="1217" y="950"/>
      <point x="1316" y="1052"/>
    </contour>
    <contour>
      <point x="209" y="426" type="line"/>
      <point x="209" y="1351" type="line"/>
      <point x="124" y="1351" type="line"/>
      <point x="124" y="1456" type="line"/>
      <point x="350" y="1456" type="line"/>
      <point x="350" y="426" type="line"/>
    </contour>
    <contour>
      <point x="339" y="0" type="line"/>
      <point x="1172" y="1456" type="line"/>
      <point x="1321" y="1456" type="line"/>
      <point x="490" y="0" type="line"/>
    </contour>
  </outline>
</glyph>
<glyph name="germandbls" format="1">
  <advance width="1263"/>
  <unicode hex="00DF"/>
  <outline>
    <contour>
      <point x="1181" y="341" type="curve" smooth="yes"/>
      <point x="1181" y="102"/>
      <point x="988" y="-22"/>
      <point x="800" y="-22" type="curve" smooth="yes"/>
      <point x="656" y="-22"/>
      <point x="551" y="47"/>
      <point x="479" y="138" type="curve"/>
      <point x="544" y="243" type="line"/>
      <point x="605" y="173"/>
      <point x="687" y="109"/>
      <point x="796" y="109" type="curve" smooth="yes"/>
      <point x="919" y="109"/>
      <point x="1024" y="199"/>
      <point x="1024" y="324" type="curve" smooth="yes"/>
      <point x="1024" y="580"/>
      <point x="770" y="616"/>
      <point x="585" y="713" type="curve" smooth="yes"/>
      <point x="551.239" y="730.594"/>
      <point x="532.853" y="759.719"/>
      <point x="532.853" y="790.054" type="curve" smooth="yes"/>
      <point x="532.853" y="823.514"/>
      <point x="555.222" y="858.447"/>
      <point x="604" y="881" type="curve" smooth="yes"/>
      <point x="750" y="948"/>
      <point x="819" y="1064"/>
      <point x="819" y="1164" type="curve" smooth="yes"/>
      <point x="819" y="1266"/>
      <point x="747" y="1351"/>
      <point x="611" y="1351" type="curve" smooth="yes"/>
      <point x="421" y="1351"/>
      <point x="344" y="1197"/>
      <point x="345" y="1007" type="curve" smooth="yes"/>
      <point x="349" y="0" type="line"/>
      <point x="184" y="0" type="line"/>
      <point x="182" y="1040" type="line" smooth="yes"/>
      <point x="182" y="1325"/>
      <point x="347" y="1480"/>
      <point x="612" y="1480" type="curve" smooth="yes"/>
      <point x="877" y="1480"/>
      <point x="996" y="1329"/>
      <point x="996" y="1168" type="curve" smooth="yes"/>
      <point x="996" y="1026"/>
      <point x="902" y="876"/>
      <point x="735" y="819" type="curve" smooth="yes"/>
      <point x="714.252" y="811.738"/>
      <point x="701.576" y="804.208"/>
      <point x="701.576" y="796.547" type="curve" smooth="yes"/>
      <point x="701.576" y="789.439"/>
      <point x="712.491" y="782.22"/>
      <point x="738" y="775" type="curve" smooth="yes"/>
      <point x="986" y="704"/>
      <point x="1181" y="601"/>
    </contour>
  </outline>
</glyph>
<glyph name="gcommaaccent" format="1">
  <advance width="1129"/>
  <unicode hex="0123"/>
  <outline>
    <contour>
      <point x="426" y="1162" type="line"/>
      <point x="583" y="1625" type="line"/>
      <point x="709" y="1625" type="line"/>
      <point x="606" y="1162" type="line"/>
    </contour>
    <contour>
      <point x="530" y="116" type="curve" smooth="yes"/>
      <point x="719" y="116"/>
      <point x="845" y="261"/>
      <point x="845" y="453" type="curve" smooth="yes"/>
      <point x="845" y="872" type="line"/>
      <point x="805" y="893"/>
      <point x="730" y="907"/>
      <point x="657" y="907" type="curve" smooth="yes"/>
      <point x="425" y="907"/>
      <point x="270" y="723"/>
      <point x="270" y="448" type="curve" smooth="yes"/>
      <point x="270" y="249"/>
      <point x="374" y="116"/>
    </contour>
    <contour>
      <point x="524" y="-494" type="curve" smooth="yes"/>
      <point x="427" y="-494"/>
      <point x="299" y="-470"/>
      <point x="199" y="-433" type="curve"/>
      <point x="218" y="-280" type="line"/>
      <point x="308" y="-326"/>
      <point x="426" y="-357"/>
      <point x="511" y="-357" type="curve" smooth="yes"/>
      <point x="712" y="-357"/>
      <point x="845" y="-232"/>
      <point x="845" y="-44" type="curve" smooth="yes"/>
      <point x="845" y="133" type="line"/>
      <point x="773" y="39"/>
      <point x="642" y="-22"/>
      <point x="506" y="-22" type="curve" smooth="yes"/>
      <point x="266" y="-22"/>
      <point x="100" y="162"/>
      <point x="100" y="438" type="curve" smooth="yes"/>
      <point x="100" y="804"/>
      <point x="328" y="1048"/>
      <point x="660" y="1048" type="curve" smooth="yes"/>
      <point x="789" y="1048"/>
      <point x="929" y="1014"/>
      <point x="1009" y="962" type="curve"/>
      <point x="1009" y="-23" type="line" smooth="yes"/>
      <point x="1009" y="-306"/>
      <point x="811" y="-494"/>
    </contour>
  </outline>
</glyph>
<glyph name="dotaccentcmb" format="1">
  <advance width="534"/>
  <unicode hex="0307"/>
  <outline>
    <contour>
      <point x="194" y="1246" type="line"/>
      <point x="194" y="1409" type="line"/>
      <point x="354" y="1409" type="line"/>
      <point x="354" y="1246" type="line"/>
    </contour>
  </outline>
</glyph>
<glyph name="endash" format="1">
  <advance width="1466"/>
  <unicode hex="2013"/>
  <outline>
    <contour>
      <point x="200" y="489" type="line"/>
      <point x="200" y="626" type="line"/>
      <point x="1266" y="626" type="line"/>
      <point x="1266" y="489" type="line"/>
    </contour>
  </outline>
</glyph>
<glyph name="uni2074" format="1">
  <advance width="907"/>
  <unicode hex="2074"/>
  <outline>
    <contour>
      <point x="127" y="910" type="line"/>
      <point x="366" y="910" type="line"/>
      <point x="366" y="1244" type="line"/>
    </contour>
    <contour>
      <point x="366" y="615" type="line"/>
      <point x="366" y="803" type="line"/>
      <point x="-12" y="803" type="line"/>
      <point x="-12" y="894" type="line"/>
      <point x="354" y="1412" type="line"/>
      <point x="488" y="1412" type="line"/>
      <point x="488" y="910" type="line"/>
      <point x="597" y="910" type="line"/>
      <point x="607" y="803" type="line"/>
      <point x="486" y="803" type="line"/>
      <point x="486" y="615" type="line"/>
    </contour>
  </outline>
</glyph>
<glyph name="uni2611" format="1">
  <advance width="1629"/>
  <unicode hex="2611"/>
  <outline>
    <contour>
      <point x="178.0" y="0.0" type="line"/>
      <point x="1451.0" y="0.0" type="line"/>
      <point x="1451.0" y="1307.0" type="line"/>
      <point x="178.0" y="1307.0" type="line"/>
    </contour>
    <contour>
      <point x="321.0" y="606.0" type="curve" smooth="yes"/>
      <point x="410.0" y="216.0" type="line" smooth="yes"/>
      <point x="429.0" y="124.0"/>
      <point x="513.0" y="115.0"/>
      <point x="563.0" y="177.0" type="curve" smooth="yes"/>
      <point x="1285.0" y="1072.0" type="line" smooth="yes"/>
      <point x="1320.0" y="1115.0"/>
      <point x="1261.0" y="1182.0"/>
      <point x="1217.0" y="1133.0" type="curve" smooth="yes"/>
      <point x="528.0" y="371.0" type="line"/>
      <point x="436.0" y="631.0" type="line" smooth="yes"/>
      <point x="408.0" y="711.0"/>
      <point x="305.0" y="676.0"/>
    </contour>
    <contour>
      <point x="266.0" y="82.0" type="line"/>
      <point x="266.0" y="1225.0" type="line"/>
      <point x="1363.0" y="1225.0" type="line"/>
      <point x="1363.0" y="82.0" type="line"/>
    </contour>
  </outline>
</glyph>
<glyph name="k.alt.2" format="1">
  <advance width="1126"/>
  <outline>
    <contour>
      <point x="1120" y="131" type="curve"/>
      <point x="1108" y="-4" type="line"/>
      <point x="1074.54" y="-17.4617"/>
      <point x="1043.63" y="-23.634"/>
      <point x="1014.67" y="-23.634" type="curve" smooth="yes"/>
      <point x="897.314" y="-23.634"/>
      <point x="811.838" y="77.6746"/>
      <point x="718" y="206" type="curve"/>
      <point x="582" y="390" type="line"/>
      <point x="317" y="27" type="line"/>
      <point x="293.927" y="-1.10768"/>
      <point x="264.693" y="-14.6078"/>
      <point x="238.529" y="-14.6078" type="curve" smooth="yes"/>
      <point x="202.326" y="-14.6078"/>
      <point x="172" y="11.2395"/>
      <point x="172" y="60" type="curve" smooth="yes"/>
      <point x="172" y="1526" type="line"/>
      <point x="336" y="1526" type="line"/>
      <point x="336" y="288" type="line"/>
      <point x="860" y="1026" type="line"/>
      <point x="1008" y="976" type="line"/>
      <point x="671" y="512" type="line"/>
      <point x="831" y="295" type="line" smooth="yes"/>
      <point x="895.525" y="207.373"/>
      <point x="960.051" y="110.227"/>
      <point x="1047.83" y="110.227" type="curve" smooth="yes"/>
      <point x="1070.24" y="110.227"/>
      <point x="1094.17" y="116.559"/>
    </contour>
  </outline>
</glyph>
